<?xml version="1.0" encoding="UTF-8"?>
<svg version="1.1" viewBox="0 0 24 24" xmlns="http://www.w3.org/2000/svg" xmlns:xlink="http://www.w3.org/1999/xlink">
    <!--Generated by IJSVG (https://github.com/curthard89/IJSVG)-->
    <g fill="none">
        <path d="M0,0h24v24h-24Z" transform="translate(0, 0.006)"></path>
    </g>
    <g id="dlSvg" fill="#F0D104">
        <path d="M0,4.707l1.414,1.414l2.293,-2.293v12.586h2v-12.586l2.293,2.293l1.414,-1.414l-4.707,-4.707Z" transform="translate(7.293, 5.588)"></path>
        <path d="M14,0h-12c-1.104,0 -2,0.896 -2,2v10c0,1.102 0.896,2 2,2h1v-2h-1v-10h12v10h-1v2h1c1.104,0 2,-0.898 2,-2v-10c0,-1.104 -0.896,-2 -2,-2Z" transform="translate(4, 2.002)"></path>
    </g>
</svg>
